<?xml version="1.0" encoding="utf-8"?>
<!-- Generator: Adobe Illustrator 26.4.1, SVG Export Plug-In . SVG Version: 6.00 Build 0)  -->
<svg version="1.1" id="Layer_1" xmlns="http://www.w3.org/2000/svg" xmlns:xlink="http://www.w3.org/1999/xlink" x="0px" y="0px"
	 viewBox="0 0 20 20" style="enable-background:new 0 0 20 20;" xml:space="preserve">
<style type="text/css">
	.st0{fill:#A32E39;}
</style>
<path class="st0" d="M7,15.4c0,0.1-0.1,0.1-0.2,0.1c-0.1,0-0.2,0-0.2-0.1c0-0.1,0.1-0.1,0.2-0.1C6.9,15.3,7,15.3,7,15.4z M5.8,15.3
	c0,0.1,0,0.2,0.2,0.2c0.1,0,0.2,0,0.2-0.1c0-0.1,0-0.2-0.2-0.2C6,15.2,5.9,15.2,5.8,15.3L5.8,15.3z M7.5,15.2
	c-0.1,0-0.2,0.1-0.2,0.2c0,0.1,0.1,0.1,0.2,0.1c0.1,0,0.2-0.1,0.2-0.2C7.7,15.2,7.6,15.2,7.5,15.2z M9.9,1.1c-5.1,0-9,3.9-9,9
	c0,4.1,2.6,7.6,6.2,8.8c0.5,0.1,0.6-0.2,0.6-0.4c0-0.2,0-1.5,0-2.3c0,0-2.6,0.6-3.1-1.1c0,0-0.4-1.1-1-1.3c0,0-0.8-0.6,0.1-0.6
	c0,0,0.9,0.1,1.4,0.9c0.8,1.4,2.2,1,2.7,0.8c0.1-0.6,0.3-1,0.6-1.2c-2.1-0.2-4.1-0.5-4.1-4.1c0-1,0.3-1.5,0.9-2.2
	C5,7.2,4.7,6.2,5.2,4.9c0.8-0.2,2.5,1,2.5,1C8.5,5.7,9.2,5.6,10,5.6c0.8,0,1.6,0.1,2.3,0.3c0,0,1.8-1.2,2.5-1
	c0.5,1.3,0.2,2.3,0.1,2.5c0.6,0.7,0.9,1.2,0.9,2.2c0,3.6-2.2,3.8-4.2,4.1c0.3,0.3,0.6,0.8,0.6,1.7c0,1.2,0,2.8,0,3.1
	c0,0.2,0.2,0.5,0.6,0.4c3.7-1.2,6.2-4.7,6.2-8.8C19.1,5,15,1.1,9.9,1.1z M4.5,13.8c0,0,0,0.1,0,0.2c0.1,0.1,0.1,0.1,0.2,0
	c0,0,0-0.1,0-0.2C4.6,13.8,4.5,13.7,4.5,13.8z M4.1,13.5c0,0,0,0.1,0.1,0.1c0.1,0,0.1,0,0.2,0c0,0,0-0.1-0.1-0.1
	C4.1,13.4,4.1,13.5,4.1,13.5z M5.2,14.8c-0.1,0,0,0.2,0,0.2c0.1,0.1,0.2,0.1,0.2,0c0,0,0-0.2,0-0.2C5.4,14.8,5.3,14.7,5.2,14.8z
	 M4.8,14.3c-0.1,0-0.1,0.1,0,0.2C4.9,14.6,5,14.6,5,14.6c0.1,0,0.1-0.1,0-0.2C5,14.3,4.9,14.2,4.8,14.3L4.8,14.3z"/>
</svg>
