<?xml version="1.0" encoding="utf-8"?>
<!-- Generator: Adobe Illustrator 26.4.1, SVG Export Plug-In . SVG Version: 6.00 Build 0)  -->
<svg version="1.1" id="Layer_1" xmlns="http://www.w3.org/2000/svg" xmlns:xlink="http://www.w3.org/1999/xlink" x="0px" y="0px"
	 viewBox="0 0 20 20" style="enable-background:new 0 0 20 20;" xml:space="preserve">
<style type="text/css">
	.st0{fill:#A32E39;}
</style>
<path class="st0" d="M3.9,4.9c-0.8,0-1.4,0.6-1.4,1.4c0,0.4,0.2,0.9,0.6,1.1l6.4,4.8c0.3,0.2,0.8,0.2,1.1,0l6.4-4.8
	c0.4-0.3,0.6-0.7,0.6-1.1c0-0.8-0.6-1.4-1.4-1.4C16.1,4.9,3.9,4.9,3.9,4.9z M2.5,8.2v6.1c0,1,0.8,1.9,1.9,1.9h11.2
	c1,0,1.9-0.8,1.9-1.9V8.2l-6.4,4.8c-0.7,0.5-1.6,0.5-2.2,0L2.5,8.2z"/>
</svg>
