<?xml version="1.0" encoding="utf-8"?>
<!-- Generator: Adobe Illustrator 26.4.1, SVG Export Plug-In . SVG Version: 6.00 Build 0)  -->
<svg version="1.1" id="Layer_1" xmlns="http://www.w3.org/2000/svg" xmlns:xlink="http://www.w3.org/1999/xlink" x="0px" y="0px"
	 viewBox="0 0 20 20" style="enable-background:new 0 0 20 20;" xml:space="preserve">
<style type="text/css">
	.st0{fill:#A32E39;}
</style>
<path class="st0" d="M16.5,2.4h-13c-0.6,0-1.1,0.5-1.1,1.1v12.9c0,0.6,0.5,1.1,1.1,1.1h13c0.6,0,1.1-0.5,1.1-1.1V3.5
	C17.6,2.9,17.1,2.4,16.5,2.4z M7,15.4H4.8V8.2H7L7,15.4L7,15.4z M5.9,7.2c-0.7,0-1.3-0.6-1.3-1.3s0.6-1.3,1.3-1.3
	c0.7,0,1.3,0.6,1.3,1.3C7.2,6.6,6.6,7.2,5.9,7.2z M15.4,15.4h-2.2v-3.5c0-0.8,0-1.9-1.2-1.9c-1.2,0-1.3,0.9-1.3,1.9v3.6H8.4V8.2h2.1
	v1h0c0.3-0.6,1-1.2,2.1-1.2c2.3,0,2.7,1.5,2.7,3.4V15.4z"/>
</svg>
